<mxfile host="app.diagrams.net" agent="Mozilla/5.0 (Macintosh; Intel Mac OS X 10_15_7) AppleWebKit/605.1.15 (KHTML, like Gecko) Version/17.5 Safari/605.1.15" version="24.7.17">
  <diagram name="Page-1" id="5f0bae14-7c28-e335-631c-24af17079c00">
    <mxGraphModel dx="1466" dy="841" grid="1" gridSize="10" guides="1" tooltips="1" connect="1" arrows="1" fold="1" page="1" pageScale="1" pageWidth="1100" pageHeight="850" background="none" math="0" shadow="0">
      <root>
        <mxCell id="0" />
        <mxCell id="1" parent="0" />
        <mxCell id="EpOzv0EDAfR-xVy_IqTW-29" value="Core Domain" style="verticalAlign=top;align=left;spacingTop=8;spacingLeft=2;spacingRight=12;shape=cube;size=10;direction=south;fontStyle=4;html=1;rounded=0;shadow=0;comic=0;labelBackgroundColor=none;strokeWidth=1;fontFamily=Verdana;fontSize=12" parent="1" vertex="1">
          <mxGeometry x="40" y="120" width="270" height="340" as="geometry" />
        </mxCell>
        <mxCell id="EpOzv0EDAfR-xVy_IqTW-1" value="&lt;b&gt;Core Config Library&lt;/b&gt;" style="html=1;dropTarget=0;whiteSpace=wrap;rotation=0;" parent="1" vertex="1">
          <mxGeometry x="80" y="180" width="180" height="90" as="geometry" />
        </mxCell>
        <mxCell id="EpOzv0EDAfR-xVy_IqTW-2" value="" style="shape=module;jettyWidth=8;jettyHeight=4;" parent="EpOzv0EDAfR-xVy_IqTW-1" vertex="1">
          <mxGeometry x="1" width="20" height="20" relative="1" as="geometry">
            <mxPoint x="-27" y="7" as="offset" />
          </mxGeometry>
        </mxCell>
        <mxCell id="EpOzv0EDAfR-xVy_IqTW-3" value="&lt;b&gt;Core Feature&amp;nbsp;&lt;/b&gt;&lt;div&gt;&lt;b&gt;Shared Library&lt;/b&gt;&lt;/div&gt;" style="html=1;dropTarget=0;whiteSpace=wrap;" parent="1" vertex="1">
          <mxGeometry x="80" y="340" width="180" height="90" as="geometry" />
        </mxCell>
        <mxCell id="EpOzv0EDAfR-xVy_IqTW-4" value="" style="shape=module;jettyWidth=8;jettyHeight=4;" parent="EpOzv0EDAfR-xVy_IqTW-3" vertex="1">
          <mxGeometry x="1" width="20" height="20" relative="1" as="geometry">
            <mxPoint x="-27" y="7" as="offset" />
          </mxGeometry>
        </mxCell>
        <mxCell id="EpOzv0EDAfR-xVy_IqTW-28" value="" style="ellipse;whiteSpace=wrap;html=1;align=center;aspect=fixed;fillColor=none;strokeColor=none;resizable=0;perimeter=centerPerimeter;rotatable=0;allowArrows=0;points=[];outlineConnect=1;" parent="1" vertex="1">
          <mxGeometry x="320" y="525" width="10" height="10" as="geometry" />
        </mxCell>
        <mxCell id="EpOzv0EDAfR-xVy_IqTW-30" value="App Domain" style="verticalAlign=top;align=left;spacingTop=8;spacingLeft=2;spacingRight=12;shape=cube;size=10;direction=south;fontStyle=4;html=1;rounded=0;shadow=0;comic=0;labelBackgroundColor=none;strokeWidth=1;fontFamily=Verdana;fontSize=12" parent="1" vertex="1">
          <mxGeometry x="400" y="120" width="255" height="690" as="geometry" />
        </mxCell>
        <mxCell id="EpOzv0EDAfR-xVy_IqTW-13" value="&lt;b&gt;App Feature A Library&lt;/b&gt;" style="html=1;dropTarget=0;whiteSpace=wrap;" parent="1" vertex="1">
          <mxGeometry x="437.5" y="340" width="180" height="90" as="geometry" />
        </mxCell>
        <mxCell id="EpOzv0EDAfR-xVy_IqTW-14" value="" style="shape=module;jettyWidth=8;jettyHeight=4;" parent="EpOzv0EDAfR-xVy_IqTW-13" vertex="1">
          <mxGeometry x="1" width="20" height="20" relative="1" as="geometry">
            <mxPoint x="-27" y="7" as="offset" />
          </mxGeometry>
        </mxCell>
        <mxCell id="EpOzv0EDAfR-xVy_IqTW-19" value="" style="ellipse;whiteSpace=wrap;html=1;align=center;aspect=fixed;fillColor=none;strokeColor=none;resizable=0;perimeter=centerPerimeter;rotatable=0;allowArrows=0;points=[];outlineConnect=1;rotation=-90;container=0;" parent="1" vertex="1">
          <mxGeometry x="522.5" y="440" width="10" height="10" as="geometry" />
        </mxCell>
        <mxCell id="EpOzv0EDAfR-xVy_IqTW-20" value="&lt;b&gt;App Feature B Library&lt;/b&gt;" style="html=1;dropTarget=0;whiteSpace=wrap;" parent="1" vertex="1">
          <mxGeometry x="437.5" y="690" width="180" height="90" as="geometry" />
        </mxCell>
        <mxCell id="EpOzv0EDAfR-xVy_IqTW-21" value="" style="shape=module;jettyWidth=8;jettyHeight=4;" parent="EpOzv0EDAfR-xVy_IqTW-20" vertex="1">
          <mxGeometry x="1" width="20" height="20" relative="1" as="geometry">
            <mxPoint x="-27" y="7" as="offset" />
          </mxGeometry>
        </mxCell>
        <mxCell id="EpOzv0EDAfR-xVy_IqTW-32" value="&lt;b&gt;App&lt;/b&gt;" style="html=1;dropTarget=0;whiteSpace=wrap;" parent="1" vertex="1">
          <mxGeometry x="750" y="340" width="180" height="90" as="geometry" />
        </mxCell>
        <mxCell id="EpOzv0EDAfR-xVy_IqTW-33" value="" style="shape=module;jettyWidth=8;jettyHeight=4;" parent="EpOzv0EDAfR-xVy_IqTW-32" vertex="1">
          <mxGeometry x="1" width="20" height="20" relative="1" as="geometry">
            <mxPoint x="-27" y="7" as="offset" />
          </mxGeometry>
        </mxCell>
        <mxCell id="EpOzv0EDAfR-xVy_IqTW-38" value="" style="ellipse;whiteSpace=wrap;html=1;align=center;aspect=fixed;fillColor=none;strokeColor=none;resizable=0;perimeter=centerPerimeter;rotatable=0;allowArrows=0;points=[];outlineConnect=1;" parent="1" vertex="1">
          <mxGeometry x="345" y="220" width="10" height="10" as="geometry" />
        </mxCell>
        <mxCell id="EpOzv0EDAfR-xVy_IqTW-42" value="" style="ellipse;whiteSpace=wrap;html=1;align=center;aspect=fixed;fillColor=none;strokeColor=none;resizable=0;perimeter=centerPerimeter;rotatable=0;allowArrows=0;points=[];outlineConnect=1;" parent="1" vertex="1">
          <mxGeometry x="335" y="510" width="10" height="10" as="geometry" />
        </mxCell>
        <mxCell id="EpOzv0EDAfR-xVy_IqTW-46" value="" style="ellipse;whiteSpace=wrap;html=1;align=center;aspect=fixed;fillColor=none;strokeColor=none;resizable=0;perimeter=centerPerimeter;rotatable=0;allowArrows=0;points=[];outlineConnect=1;" parent="1" vertex="1">
          <mxGeometry x="705" y="480" width="10" height="10" as="geometry" />
        </mxCell>
        <mxCell id="EpOzv0EDAfR-xVy_IqTW-56" value="" style="ellipse;whiteSpace=wrap;html=1;align=center;aspect=fixed;fillColor=none;strokeColor=none;resizable=0;perimeter=centerPerimeter;rotatable=0;allowArrows=0;points=[];outlineConnect=1;" parent="1" vertex="1">
          <mxGeometry x="735" y="400" width="10" height="10" as="geometry" />
        </mxCell>
        <mxCell id="EpOzv0EDAfR-xVy_IqTW-60" value="" style="ellipse;whiteSpace=wrap;html=1;align=center;aspect=fixed;fillColor=none;strokeColor=none;resizable=0;perimeter=centerPerimeter;rotatable=0;allowArrows=0;points=[];outlineConnect=1;rotation=-90;" parent="1" vertex="1">
          <mxGeometry x="835" y="540" width="10" height="10" as="geometry" />
        </mxCell>
        <mxCell id="a017p_0Chw10-gwzeYwo-1" value="" style="rounded=0;orthogonalLoop=1;jettySize=auto;html=1;endArrow=halfCircle;endFill=0;endSize=6;strokeWidth=1;sketch=0;exitX=0.5;exitY=0;exitDx=0;exitDy=0;" parent="1" source="EpOzv0EDAfR-xVy_IqTW-3" target="a017p_0Chw10-gwzeYwo-3" edge="1">
          <mxGeometry relative="1" as="geometry">
            <mxPoint x="170" y="325" as="sourcePoint" />
          </mxGeometry>
        </mxCell>
        <mxCell id="a017p_0Chw10-gwzeYwo-2" value="" style="rounded=0;orthogonalLoop=1;jettySize=auto;html=1;endArrow=oval;endFill=0;sketch=0;sourcePerimeterSpacing=0;targetPerimeterSpacing=0;endSize=10;exitX=0.5;exitY=1;exitDx=0;exitDy=0;" parent="1" source="EpOzv0EDAfR-xVy_IqTW-1" target="a017p_0Chw10-gwzeYwo-3" edge="1">
          <mxGeometry relative="1" as="geometry">
            <mxPoint x="170" y="285" as="sourcePoint" />
          </mxGeometry>
        </mxCell>
        <mxCell id="a017p_0Chw10-gwzeYwo-3" value="" style="ellipse;whiteSpace=wrap;html=1;align=center;aspect=fixed;fillColor=none;strokeColor=none;resizable=0;perimeter=centerPerimeter;rotatable=0;allowArrows=0;points=[];outlineConnect=1;rotation=90;" parent="1" vertex="1">
          <mxGeometry x="165" y="300" width="10" height="10" as="geometry" />
        </mxCell>
        <mxCell id="a017p_0Chw10-gwzeYwo-8" value="" style="ellipse;whiteSpace=wrap;html=1;align=center;aspect=fixed;fillColor=none;strokeColor=none;resizable=0;perimeter=centerPerimeter;rotatable=0;allowArrows=0;points=[];outlineConnect=1;" parent="1" vertex="1">
          <mxGeometry x="335" y="380" width="10" height="10" as="geometry" />
        </mxCell>
        <mxCell id="a017p_0Chw10-gwzeYwo-11" value="" style="ellipse;whiteSpace=wrap;html=1;align=center;aspect=fixed;fillColor=none;strokeColor=none;resizable=0;perimeter=centerPerimeter;rotatable=0;allowArrows=0;points=[];outlineConnect=1;" parent="1" vertex="1">
          <mxGeometry x="335" y="540" width="10" height="10" as="geometry" />
        </mxCell>
        <mxCell id="a017p_0Chw10-gwzeYwo-15" value="" style="ellipse;whiteSpace=wrap;html=1;align=center;aspect=fixed;fillColor=none;strokeColor=none;resizable=0;perimeter=centerPerimeter;rotatable=0;allowArrows=0;points=[];outlineConnect=1;rotation=90;container=0;" parent="1" vertex="1">
          <mxGeometry x="835" y="270" width="10" height="10" as="geometry" />
        </mxCell>
        <mxCell id="a017p_0Chw10-gwzeYwo-19" value="" style="ellipse;whiteSpace=wrap;html=1;align=center;aspect=fixed;fillColor=none;strokeColor=none;resizable=0;perimeter=centerPerimeter;rotatable=0;allowArrows=0;points=[];outlineConnect=1;rotation=90;" parent="1" vertex="1">
          <mxGeometry x="525" y="290" width="10" height="10" as="geometry" />
        </mxCell>
        <mxCell id="a017p_0Chw10-gwzeYwo-27" value="" style="ellipse;whiteSpace=wrap;html=1;align=center;aspect=fixed;fillColor=none;strokeColor=none;resizable=0;perimeter=centerPerimeter;rotatable=0;allowArrows=0;points=[];outlineConnect=1;" parent="1" vertex="1">
          <mxGeometry x="345" y="240" width="10" height="10" as="geometry" />
        </mxCell>
        <mxCell id="a017p_0Chw10-gwzeYwo-34" value="" style="ellipse;whiteSpace=wrap;html=1;align=center;aspect=fixed;fillColor=none;strokeColor=none;resizable=0;perimeter=centerPerimeter;rotatable=0;allowArrows=0;points=[];outlineConnect=1;" parent="1" vertex="1">
          <mxGeometry x="345" y="220" width="10" height="10" as="geometry" />
        </mxCell>
        <mxCell id="a017p_0Chw10-gwzeYwo-35" value="&lt;b&gt;App Config Library&lt;/b&gt;" style="html=1;dropTarget=0;whiteSpace=wrap;rotation=0;" parent="1" vertex="1">
          <mxGeometry x="440" y="180" width="180" height="90" as="geometry" />
        </mxCell>
        <mxCell id="a017p_0Chw10-gwzeYwo-36" value="" style="shape=module;jettyWidth=8;jettyHeight=4;" parent="a017p_0Chw10-gwzeYwo-35" vertex="1">
          <mxGeometry x="1" width="20" height="20" relative="1" as="geometry">
            <mxPoint x="-27" y="7" as="offset" />
          </mxGeometry>
        </mxCell>
        <mxCell id="a017p_0Chw10-gwzeYwo-42" value="" style="ellipse;whiteSpace=wrap;html=1;align=center;aspect=fixed;fillColor=none;strokeColor=none;resizable=0;perimeter=centerPerimeter;rotatable=0;allowArrows=0;points=[];outlineConnect=1;" parent="1" vertex="1">
          <mxGeometry x="345" y="220" width="10" height="10" as="geometry" />
        </mxCell>
        <mxCell id="a017p_0Chw10-gwzeYwo-48" value="" style="ellipse;whiteSpace=wrap;html=1;align=center;aspect=fixed;fillColor=none;strokeColor=none;resizable=0;perimeter=centerPerimeter;rotatable=0;allowArrows=0;points=[];outlineConnect=1;" parent="1" vertex="1">
          <mxGeometry x="345" y="200" width="10" height="10" as="geometry" />
        </mxCell>
        <mxCell id="a017p_0Chw10-gwzeYwo-54" value="" style="ellipse;whiteSpace=wrap;html=1;align=center;aspect=fixed;fillColor=none;strokeColor=none;resizable=0;perimeter=centerPerimeter;rotatable=0;allowArrows=0;points=[];outlineConnect=1;" parent="1" vertex="1">
          <mxGeometry x="345" y="200" width="10" height="10" as="geometry" />
        </mxCell>
        <mxCell id="a017p_0Chw10-gwzeYwo-60" value="" style="ellipse;whiteSpace=wrap;html=1;align=center;aspect=fixed;fillColor=none;strokeColor=none;resizable=0;perimeter=centerPerimeter;rotatable=0;allowArrows=0;points=[];outlineConnect=1;" parent="1" vertex="1">
          <mxGeometry x="345" y="220" width="10" height="10" as="geometry" />
        </mxCell>
        <mxCell id="a017p_0Chw10-gwzeYwo-64" value="" style="ellipse;whiteSpace=wrap;html=1;align=center;aspect=fixed;fillColor=none;strokeColor=none;resizable=0;perimeter=centerPerimeter;rotatable=0;allowArrows=0;points=[];outlineConnect=1;" parent="1" vertex="1">
          <mxGeometry x="645" y="220" width="10" height="10" as="geometry" />
        </mxCell>
        <mxCell id="a017p_0Chw10-gwzeYwo-67" value="" style="ellipse;whiteSpace=wrap;html=1;align=center;aspect=fixed;fillColor=none;strokeColor=none;resizable=0;perimeter=centerPerimeter;rotatable=0;allowArrows=0;points=[];outlineConnect=1;" parent="1" vertex="1">
          <mxGeometry x="810" y="220" width="10" height="10" as="geometry" />
        </mxCell>
        <mxCell id="a017p_0Chw10-gwzeYwo-68" value="" style="rounded=0;orthogonalLoop=1;jettySize=auto;html=1;endArrow=halfCircle;endFill=0;endSize=6;strokeWidth=1;sketch=0;exitX=0.5;exitY=0;exitDx=0;exitDy=0;" parent="1" source="EpOzv0EDAfR-xVy_IqTW-32" target="a017p_0Chw10-gwzeYwo-70" edge="1">
          <mxGeometry relative="1" as="geometry">
            <mxPoint x="735" y="225" as="sourcePoint" />
          </mxGeometry>
        </mxCell>
        <mxCell id="a017p_0Chw10-gwzeYwo-69" value="" style="rounded=0;orthogonalLoop=1;jettySize=auto;html=1;endArrow=oval;endFill=0;sketch=0;sourcePerimeterSpacing=0;targetPerimeterSpacing=0;endSize=10;exitX=1;exitY=0.5;exitDx=0;exitDy=0;" parent="1" source="a017p_0Chw10-gwzeYwo-35" target="a017p_0Chw10-gwzeYwo-70" edge="1">
          <mxGeometry relative="1" as="geometry">
            <mxPoint x="695" y="225" as="sourcePoint" />
          </mxGeometry>
        </mxCell>
        <mxCell id="a017p_0Chw10-gwzeYwo-70" value="" style="ellipse;whiteSpace=wrap;html=1;align=center;aspect=fixed;fillColor=none;strokeColor=none;resizable=0;perimeter=centerPerimeter;rotatable=0;allowArrows=0;points=[];outlineConnect=1;" parent="1" vertex="1">
          <mxGeometry x="710" y="220" width="10" height="10" as="geometry" />
        </mxCell>
        <mxCell id="a017p_0Chw10-gwzeYwo-77" value="" style="ellipse;whiteSpace=wrap;html=1;align=center;aspect=fixed;fillColor=none;strokeColor=none;resizable=0;perimeter=centerPerimeter;rotatable=0;allowArrows=0;points=[];outlineConnect=1;" parent="1" vertex="1">
          <mxGeometry x="675" y="380" width="10" height="10" as="geometry" />
        </mxCell>
        <mxCell id="a017p_0Chw10-gwzeYwo-80" value="" style="ellipse;whiteSpace=wrap;html=1;align=center;aspect=fixed;fillColor=none;strokeColor=none;resizable=0;perimeter=centerPerimeter;rotatable=0;allowArrows=0;points=[];outlineConnect=1;" parent="1" vertex="1">
          <mxGeometry x="675" y="390" width="10" height="10" as="geometry" />
        </mxCell>
        <mxCell id="a017p_0Chw10-gwzeYwo-81" value="" style="rounded=0;orthogonalLoop=1;jettySize=auto;html=1;endArrow=halfCircle;endFill=0;endSize=6;strokeWidth=1;sketch=0;exitX=0;exitY=0.5;exitDx=0;exitDy=0;" parent="1" source="EpOzv0EDAfR-xVy_IqTW-32" target="a017p_0Chw10-gwzeYwo-83" edge="1">
          <mxGeometry relative="1" as="geometry">
            <mxPoint x="720" y="385" as="sourcePoint" />
          </mxGeometry>
        </mxCell>
        <mxCell id="a017p_0Chw10-gwzeYwo-82" value="" style="rounded=0;orthogonalLoop=1;jettySize=auto;html=1;endArrow=oval;endFill=0;sketch=0;sourcePerimeterSpacing=0;targetPerimeterSpacing=0;endSize=10;exitX=1;exitY=0.5;exitDx=0;exitDy=0;" parent="1" source="EpOzv0EDAfR-xVy_IqTW-13" target="a017p_0Chw10-gwzeYwo-83" edge="1">
          <mxGeometry relative="1" as="geometry">
            <mxPoint x="680" y="385" as="sourcePoint" />
          </mxGeometry>
        </mxCell>
        <mxCell id="a017p_0Chw10-gwzeYwo-83" value="" style="ellipse;whiteSpace=wrap;html=1;align=center;aspect=fixed;fillColor=none;strokeColor=none;resizable=0;perimeter=centerPerimeter;rotatable=0;allowArrows=0;points=[];outlineConnect=1;" parent="1" vertex="1">
          <mxGeometry x="695" y="380" width="10" height="10" as="geometry" />
        </mxCell>
        <mxCell id="cc4QDoE74l5UuKo3OsHw-1" value="&lt;b&gt;App Shared&amp;nbsp;&lt;/b&gt;&lt;div&gt;&lt;b&gt;Feature Library&lt;/b&gt;&lt;/div&gt;" style="html=1;dropTarget=0;whiteSpace=wrap;" parent="1" vertex="1">
          <mxGeometry x="437.5" y="525" width="180" height="90" as="geometry" />
        </mxCell>
        <mxCell id="cc4QDoE74l5UuKo3OsHw-2" value="" style="shape=module;jettyWidth=8;jettyHeight=4;" parent="cc4QDoE74l5UuKo3OsHw-1" vertex="1">
          <mxGeometry x="1" width="20" height="20" relative="1" as="geometry">
            <mxPoint x="-27" y="7" as="offset" />
          </mxGeometry>
        </mxCell>
        <mxCell id="cc4QDoE74l5UuKo3OsHw-3" value="" style="rounded=0;orthogonalLoop=1;jettySize=auto;html=1;endArrow=halfCircle;endFill=0;endSize=6;strokeWidth=1;sketch=0;exitX=0.5;exitY=1;exitDx=0;exitDy=0;" parent="1" source="EpOzv0EDAfR-xVy_IqTW-13" target="cc4QDoE74l5UuKo3OsHw-5" edge="1">
          <mxGeometry relative="1" as="geometry">
            <mxPoint x="530" y="455" as="sourcePoint" />
          </mxGeometry>
        </mxCell>
        <mxCell id="cc4QDoE74l5UuKo3OsHw-4" value="" style="rounded=0;orthogonalLoop=1;jettySize=auto;html=1;endArrow=oval;endFill=0;sketch=0;sourcePerimeterSpacing=0;targetPerimeterSpacing=0;endSize=10;exitX=0.5;exitY=0;exitDx=0;exitDy=0;" parent="1" source="cc4QDoE74l5UuKo3OsHw-1" target="cc4QDoE74l5UuKo3OsHw-5" edge="1">
          <mxGeometry relative="1" as="geometry">
            <mxPoint x="530" y="495" as="sourcePoint" />
          </mxGeometry>
        </mxCell>
        <mxCell id="cc4QDoE74l5UuKo3OsHw-5" value="" style="ellipse;whiteSpace=wrap;html=1;align=center;aspect=fixed;fillColor=none;strokeColor=none;resizable=0;perimeter=centerPerimeter;rotatable=0;allowArrows=0;points=[];outlineConnect=1;rotation=-90;" parent="1" vertex="1">
          <mxGeometry x="525" y="470" width="10" height="10" as="geometry" />
        </mxCell>
        <mxCell id="cc4QDoE74l5UuKo3OsHw-8" value="" style="rounded=0;orthogonalLoop=1;jettySize=auto;html=1;endArrow=halfCircle;endFill=0;endSize=6;strokeWidth=1;sketch=0;exitX=0.5;exitY=0;exitDx=0;exitDy=0;" parent="1" source="EpOzv0EDAfR-xVy_IqTW-20" target="cc4QDoE74l5UuKo3OsHw-10" edge="1">
          <mxGeometry relative="1" as="geometry">
            <mxPoint x="520" y="675" as="sourcePoint" />
          </mxGeometry>
        </mxCell>
        <mxCell id="cc4QDoE74l5UuKo3OsHw-9" value="" style="rounded=0;orthogonalLoop=1;jettySize=auto;html=1;endArrow=oval;endFill=0;sketch=0;sourcePerimeterSpacing=0;targetPerimeterSpacing=0;endSize=10;exitX=0.485;exitY=1.003;exitDx=0;exitDy=0;exitPerimeter=0;" parent="1" source="cc4QDoE74l5UuKo3OsHw-1" target="cc4QDoE74l5UuKo3OsHw-10" edge="1">
          <mxGeometry relative="1" as="geometry">
            <mxPoint x="520" y="635" as="sourcePoint" />
          </mxGeometry>
        </mxCell>
        <mxCell id="cc4QDoE74l5UuKo3OsHw-10" value="" style="ellipse;whiteSpace=wrap;html=1;align=center;aspect=fixed;fillColor=none;strokeColor=none;resizable=0;perimeter=centerPerimeter;rotatable=0;allowArrows=0;points=[];outlineConnect=1;rotation=90;" parent="1" vertex="1">
          <mxGeometry x="515" y="650" width="10" height="10" as="geometry" />
        </mxCell>
        <mxCell id="a017p_0Chw10-gwzeYwo-57" value="" style="ellipse;whiteSpace=wrap;html=1;align=center;aspect=fixed;fillColor=none;strokeColor=none;resizable=0;perimeter=centerPerimeter;rotatable=0;allowArrows=0;points=[];outlineConnect=1;" parent="1" vertex="1">
          <mxGeometry x="365" y="740" width="10" height="10" as="geometry" />
        </mxCell>
        <mxCell id="cc4QDoE74l5UuKo3OsHw-12" value="" style="rounded=0;orthogonalLoop=1;jettySize=auto;html=1;endArrow=halfCircle;endFill=0;endSize=6;strokeWidth=1;sketch=0;exitX=0;exitY=0.5;exitDx=0;exitDy=0;" parent="1" source="EpOzv0EDAfR-xVy_IqTW-20" target="cc4QDoE74l5UuKo3OsHw-14" edge="1">
          <mxGeometry relative="1" as="geometry">
            <mxPoint x="390" y="735" as="sourcePoint" />
          </mxGeometry>
        </mxCell>
        <mxCell id="cc4QDoE74l5UuKo3OsHw-13" value="" style="rounded=0;orthogonalLoop=1;jettySize=auto;html=1;endArrow=oval;endFill=0;sketch=0;sourcePerimeterSpacing=0;targetPerimeterSpacing=0;endSize=10;exitX=0.995;exitY=0.943;exitDx=0;exitDy=0;exitPerimeter=0;" parent="1" source="EpOzv0EDAfR-xVy_IqTW-1" target="cc4QDoE74l5UuKo3OsHw-14" edge="1">
          <mxGeometry relative="1" as="geometry">
            <mxPoint x="350" y="735" as="sourcePoint" />
          </mxGeometry>
        </mxCell>
        <mxCell id="cc4QDoE74l5UuKo3OsHw-14" value="" style="ellipse;whiteSpace=wrap;html=1;align=center;aspect=fixed;fillColor=none;strokeColor=none;resizable=0;perimeter=centerPerimeter;rotatable=0;allowArrows=0;points=[];outlineConnect=1;" parent="1" vertex="1">
          <mxGeometry x="365" y="730" width="10" height="10" as="geometry" />
        </mxCell>
        <mxCell id="cc4QDoE74l5UuKo3OsHw-18" value="" style="ellipse;whiteSpace=wrap;html=1;align=center;aspect=fixed;fillColor=none;strokeColor=none;resizable=0;perimeter=centerPerimeter;rotatable=0;allowArrows=0;points=[];outlineConnect=1;" parent="1" vertex="1">
          <mxGeometry x="370" y="570" width="10" height="10" as="geometry" />
        </mxCell>
        <mxCell id="cc4QDoE74l5UuKo3OsHw-19" value="" style="rounded=0;orthogonalLoop=1;jettySize=auto;html=1;endArrow=halfCircle;endFill=0;endSize=6;strokeWidth=1;sketch=0;exitX=0;exitY=0.5;exitDx=0;exitDy=0;" parent="1" source="EpOzv0EDAfR-xVy_IqTW-13" target="cc4QDoE74l5UuKo3OsHw-21" edge="1">
          <mxGeometry relative="1" as="geometry">
            <mxPoint x="395" y="385" as="sourcePoint" />
          </mxGeometry>
        </mxCell>
        <mxCell id="cc4QDoE74l5UuKo3OsHw-20" value="" style="rounded=0;orthogonalLoop=1;jettySize=auto;html=1;endArrow=oval;endFill=0;sketch=0;sourcePerimeterSpacing=0;targetPerimeterSpacing=0;endSize=10;exitX=1;exitY=0.25;exitDx=0;exitDy=0;" parent="1" source="EpOzv0EDAfR-xVy_IqTW-1" target="cc4QDoE74l5UuKo3OsHw-21" edge="1">
          <mxGeometry relative="1" as="geometry">
            <mxPoint x="355" y="385" as="sourcePoint" />
          </mxGeometry>
        </mxCell>
        <mxCell id="cc4QDoE74l5UuKo3OsHw-21" value="" style="ellipse;whiteSpace=wrap;html=1;align=center;aspect=fixed;fillColor=none;strokeColor=none;resizable=0;perimeter=centerPerimeter;rotatable=0;allowArrows=0;points=[];outlineConnect=1;" parent="1" vertex="1">
          <mxGeometry x="370" y="380" width="10" height="10" as="geometry" />
        </mxCell>
        <mxCell id="cc4QDoE74l5UuKo3OsHw-22" value="" style="rounded=0;orthogonalLoop=1;jettySize=auto;html=1;endArrow=halfCircle;endFill=0;endSize=6;strokeWidth=1;sketch=0;exitX=0;exitY=0.5;exitDx=0;exitDy=0;" parent="1" source="a017p_0Chw10-gwzeYwo-35" target="cc4QDoE74l5UuKo3OsHw-24" edge="1">
          <mxGeometry relative="1" as="geometry">
            <mxPoint x="395" y="225" as="sourcePoint" />
          </mxGeometry>
        </mxCell>
        <mxCell id="cc4QDoE74l5UuKo3OsHw-23" value="" style="rounded=0;orthogonalLoop=1;jettySize=auto;html=1;endArrow=oval;endFill=0;sketch=0;sourcePerimeterSpacing=0;targetPerimeterSpacing=0;endSize=10;exitX=1;exitY=0;exitDx=0;exitDy=0;" parent="1" source="EpOzv0EDAfR-xVy_IqTW-1" target="cc4QDoE74l5UuKo3OsHw-24" edge="1">
          <mxGeometry relative="1" as="geometry">
            <mxPoint x="355" y="225" as="sourcePoint" />
          </mxGeometry>
        </mxCell>
        <mxCell id="cc4QDoE74l5UuKo3OsHw-24" value="" style="ellipse;whiteSpace=wrap;html=1;align=center;aspect=fixed;fillColor=none;strokeColor=none;resizable=0;perimeter=centerPerimeter;rotatable=0;allowArrows=0;points=[];outlineConnect=1;" parent="1" vertex="1">
          <mxGeometry x="370" y="220" width="10" height="10" as="geometry" />
        </mxCell>
        <mxCell id="cc4QDoE74l5UuKo3OsHw-28" value="" style="rounded=0;orthogonalLoop=1;jettySize=auto;html=1;endArrow=halfCircle;endFill=0;endSize=6;strokeWidth=1;sketch=0;exitX=0;exitY=0.75;exitDx=0;exitDy=0;" parent="1" source="cc4QDoE74l5UuKo3OsHw-1" target="cc4QDoE74l5UuKo3OsHw-30" edge="1">
          <mxGeometry relative="1" as="geometry">
            <mxPoint x="400" y="595" as="sourcePoint" />
          </mxGeometry>
        </mxCell>
        <mxCell id="cc4QDoE74l5UuKo3OsHw-29" value="" style="rounded=0;orthogonalLoop=1;jettySize=auto;html=1;endArrow=oval;endFill=0;sketch=0;sourcePerimeterSpacing=0;targetPerimeterSpacing=0;endSize=10;exitX=0.5;exitY=1;exitDx=0;exitDy=0;" parent="1" source="EpOzv0EDAfR-xVy_IqTW-3" target="cc4QDoE74l5UuKo3OsHw-30" edge="1">
          <mxGeometry relative="1" as="geometry">
            <mxPoint x="360" y="595" as="sourcePoint" />
            <Array as="points">
              <mxPoint x="170" y="590" />
            </Array>
          </mxGeometry>
        </mxCell>
        <mxCell id="cc4QDoE74l5UuKo3OsHw-30" value="" style="ellipse;whiteSpace=wrap;html=1;align=center;aspect=fixed;fillColor=none;strokeColor=none;resizable=0;perimeter=centerPerimeter;rotatable=0;allowArrows=0;points=[];outlineConnect=1;" parent="1" vertex="1">
          <mxGeometry x="375" y="590" width="10" height="10" as="geometry" />
        </mxCell>
        <mxCell id="cc4QDoE74l5UuKo3OsHw-31" value="" style="rounded=0;orthogonalLoop=1;jettySize=auto;html=1;endArrow=halfCircle;endFill=0;endSize=6;strokeWidth=1;sketch=0;exitX=0;exitY=0.25;exitDx=0;exitDy=0;" parent="1" source="cc4QDoE74l5UuKo3OsHw-1" target="cc4QDoE74l5UuKo3OsHw-33" edge="1">
          <mxGeometry relative="1" as="geometry">
            <mxPoint x="400" y="545" as="sourcePoint" />
          </mxGeometry>
        </mxCell>
        <mxCell id="cc4QDoE74l5UuKo3OsHw-32" value="" style="rounded=0;orthogonalLoop=1;jettySize=auto;html=1;endArrow=oval;endFill=0;sketch=0;sourcePerimeterSpacing=0;targetPerimeterSpacing=0;endSize=10;exitX=1;exitY=0.673;exitDx=0;exitDy=0;exitPerimeter=0;" parent="1" source="EpOzv0EDAfR-xVy_IqTW-1" target="cc4QDoE74l5UuKo3OsHw-33" edge="1">
          <mxGeometry relative="1" as="geometry">
            <mxPoint x="360" y="545" as="sourcePoint" />
          </mxGeometry>
        </mxCell>
        <mxCell id="cc4QDoE74l5UuKo3OsHw-33" value="" style="ellipse;whiteSpace=wrap;html=1;align=center;aspect=fixed;fillColor=none;strokeColor=none;resizable=0;perimeter=centerPerimeter;rotatable=0;allowArrows=0;points=[];outlineConnect=1;" parent="1" vertex="1">
          <mxGeometry x="375" y="540" width="10" height="10" as="geometry" />
        </mxCell>
        <mxCell id="cc4QDoE74l5UuKo3OsHw-36" value="" style="ellipse;whiteSpace=wrap;html=1;align=center;aspect=fixed;fillColor=none;strokeColor=none;resizable=0;perimeter=centerPerimeter;rotatable=0;allowArrows=0;points=[];outlineConnect=1;" parent="1" vertex="1">
          <mxGeometry x="700" y="570" width="10" height="10" as="geometry" />
        </mxCell>
        <mxCell id="cc4QDoE74l5UuKo3OsHw-37" value="" style="rounded=0;orthogonalLoop=1;jettySize=auto;html=1;endArrow=halfCircle;endFill=0;endSize=6;strokeWidth=1;sketch=0;exitX=0.75;exitY=1;exitDx=0;exitDy=0;" parent="1" source="EpOzv0EDAfR-xVy_IqTW-32" target="cc4QDoE74l5UuKo3OsHw-39" edge="1">
          <mxGeometry relative="1" as="geometry">
            <mxPoint x="705" y="735" as="sourcePoint" />
          </mxGeometry>
        </mxCell>
        <mxCell id="cc4QDoE74l5UuKo3OsHw-38" value="" style="rounded=0;orthogonalLoop=1;jettySize=auto;html=1;endArrow=oval;endFill=0;sketch=0;sourcePerimeterSpacing=0;targetPerimeterSpacing=0;endSize=10;exitX=1;exitY=0.5;exitDx=0;exitDy=0;" parent="1" source="EpOzv0EDAfR-xVy_IqTW-20" target="cc4QDoE74l5UuKo3OsHw-39" edge="1">
          <mxGeometry relative="1" as="geometry">
            <mxPoint x="665" y="735" as="sourcePoint" />
          </mxGeometry>
        </mxCell>
        <mxCell id="cc4QDoE74l5UuKo3OsHw-39" value="" style="ellipse;whiteSpace=wrap;html=1;align=center;aspect=fixed;fillColor=none;strokeColor=none;resizable=0;perimeter=centerPerimeter;rotatable=0;allowArrows=0;points=[];outlineConnect=1;" parent="1" vertex="1">
          <mxGeometry x="680" y="730" width="10" height="10" as="geometry" />
        </mxCell>
        <mxCell id="cc4QDoE74l5UuKo3OsHw-40" value="" style="rounded=0;orthogonalLoop=1;jettySize=auto;html=1;endArrow=halfCircle;endFill=0;endSize=6;strokeWidth=1;sketch=0;exitX=0.25;exitY=1;exitDx=0;exitDy=0;" parent="1" source="EpOzv0EDAfR-xVy_IqTW-32" target="cc4QDoE74l5UuKo3OsHw-42" edge="1">
          <mxGeometry relative="1" as="geometry">
            <mxPoint x="700" y="585" as="sourcePoint" />
          </mxGeometry>
        </mxCell>
        <mxCell id="cc4QDoE74l5UuKo3OsHw-41" value="" style="rounded=0;orthogonalLoop=1;jettySize=auto;html=1;endArrow=oval;endFill=0;sketch=0;sourcePerimeterSpacing=0;targetPerimeterSpacing=0;endSize=10;exitX=1;exitY=0.5;exitDx=0;exitDy=0;" parent="1" source="cc4QDoE74l5UuKo3OsHw-1" target="cc4QDoE74l5UuKo3OsHw-42" edge="1">
          <mxGeometry relative="1" as="geometry">
            <mxPoint x="660" y="585" as="sourcePoint" />
          </mxGeometry>
        </mxCell>
        <mxCell id="cc4QDoE74l5UuKo3OsHw-42" value="" style="ellipse;whiteSpace=wrap;html=1;align=center;aspect=fixed;fillColor=none;strokeColor=none;resizable=0;perimeter=centerPerimeter;rotatable=0;allowArrows=0;points=[];outlineConnect=1;" parent="1" vertex="1">
          <mxGeometry x="675" y="580" width="10" height="10" as="geometry" />
        </mxCell>
        <mxCell id="e23JpJbI8-8tAk8aef3i-1" value="&lt;font style=&quot;font-size: 20px;&quot;&gt;&lt;b&gt;Monorepo Architecture Diagram Approach V2&lt;/b&gt;&lt;/font&gt;" style="text;html=1;align=center;verticalAlign=middle;whiteSpace=wrap;rounded=0;" vertex="1" parent="1">
          <mxGeometry x="200" y="40" width="460" height="30" as="geometry" />
        </mxCell>
      </root>
    </mxGraphModel>
  </diagram>
</mxfile>
